<svg xmlns="http://www.w3.org/2000/svg" version="1.1" xmlns:xlink="http://www.w3.org/1999/xlink" xmlns:svgjs="http://svgjs.dev/svgjs" width="1000" height="166" viewBox="0 0 1000 166"><g transform="matrix(1,0,0,1,-0.6060606060606233,-0.3869060019052313)"><svg viewBox="0 0 396 66" data-background-color="#ffffff" preserveAspectRatio="xMidYMid meet" height="166" width="1000" xmlns="http://www.w3.org/2000/svg" xmlns:xlink="http://www.w3.org/1999/xlink"><g id="tight-bounds" transform="matrix(1,0,0,1,0.2400000000000091,0.15383009714304308)"><svg viewBox="0 0 395.52 65.69233980571389" height="65.69233980571389" width="395.52"><g><svg viewBox="0 0 395.52 65.69233980571389" height="65.69233980571389" width="395.52"><g><svg viewBox="0 0 395.52 65.69233980571389" height="65.69233980571389" width="395.52"><g><svg viewBox="0 0 480.01876675322865 79.72683034656355" height="65.69233980571389" width="395.52"><g transform="matrix(1,0,0,1,0,11.018686393772533)"><svg viewBox="0 0 395.52 57.68945755901848" height="57.68945755901848" width="395.52"><g id="textblocktransform"><svg viewBox="0 0 395.52 57.68945755901848" height="57.68945755901848" width="395.52" id="textblock"><g><svg viewBox="0 0 395.52 32.70518319327731" height="32.70518319327731" width="395.52"><g transform="matrix(1,0,0,1,0,0)"><svg width="395.52" viewBox="1.8 -29.35 594.96 49.20000000000001" height="32.70518319327731" data-palette-color="#233565"><path d="M32.85-22.7L32.85-22.7Q32.85-24.05 32.45-25L32.45-25 46.7-25Q48.5-20.2 49.38-13.25 50.25-6.3 50.3 0L50.3 0 38.75 0Q38.4-9 35.8-17.35L35.8-17.35Q31.45-8.85 31.1 0L31.1 0 21.3 0Q20-9.8 16.3-17.4L16.3-17.4Q13.6-11.05 13.6-5.6L13.6-5.6Q13.6-2.65 14.3 0L14.3 0 2.15 0Q1.8-2.05 1.8-5.43 1.8-8.8 2.8-12.2L2.8-12.2Q6.35-13.25 9.63-15.65 12.9-18.05 14.45-20.9L14.45-20.9Q13.15-23.05 11.7-25L11.7-25 27.5-25Q29.4-19.85 30.35-13.8L30.35-13.8Q32.85-18.45 32.85-22.7ZM87.1-0.4L87.1-0.4 87.1 0 75.5 0Q75.3-2.85 74.65-5.9L74.65-5.9Q71.55-2.75 67.65 0L67.65 0 56 0Q55.65-2.05 55.65-5.43 55.65-8.8 56.65-12.2L56.65-12.2Q60.25-13.25 63.57-15.75 66.9-18.25 68.4-21.15L68.4-21.15Q67.05-23.25 65.55-25L65.55-25 82.15-25Q87.1-14.25 87.1-0.4ZM73.75-9.55L73.75-9.55Q72.45-14 70.35-17.95L70.35-17.95Q68-11.05 67.65-4.9L67.65-4.9Q71.25-6.75 73.75-9.55ZM119.15-16.3L119.15-16.3 119.1-14.6Q115.1-12.45 109.1-11.25L109.1-11.25Q113.4-10.1 117.4-10.1L117.4-10.1 118.45-10.1Q121.2-6.05 122 0L122 0 109.05 0Q108.55-3.5 107.02-6.03 105.5-8.55 103.3-9.45L103.3-9.45Q103.25-8.6 103.25-6.05 103.25-3.5 103.55 0L103.55 0 92.65 0Q91.2-7.25 91.2-13.48 91.2-19.7 91.9-25L91.9-25 118-25Q119.15-19.95 119.15-16.3ZM104.35-21.65L104.35-21.65Q103.75-17.25 103.45-13L103.45-13Q106.2-13.4 107.95-14.95L107.95-14.95Q107-18.3 104.35-21.65ZM151.84-25.35L151.84-25.35 153.49-25.35Q156.69-25.35 158.24-26.1L158.24-26.1Q156.04-22.85 153.99-20.45L153.99-20.45 153.19-20.45Q150.64-20.45 148.24-21.25L148.24-21.25Q144.84-18.45 142.79-13.8L142.79-13.8Q148.09-12.45 154.59-12.2L154.59-12.2Q156.09-8.4 156.64 0L156.64 0 143.69 0Q142.84-3.7 141.12-6.83 139.39-9.95 137.54-11.1L137.54-11.1Q137.19-7 137.19-4.5 137.19-2 137.34 0L137.34 0 126.34 0Q125.39-7.35 125.39-12.43 125.39-17.5 126.14-25L126.14-25 140.04-25Q138.54-18.8 137.99-14.6L137.99-14.6Q140.24-18.3 142.72-20.83 145.19-23.35 148.59-25.1L148.59-25.1Q149.89-25.35 151.84-25.35ZM164.84-0.15L164.84-0.15Q160.39-5.85 160.39-11.85 160.39-17.85 165.39-22 170.39-26.15 178.19-26.15L178.19-26.15Q182.34-26.15 186.44-24.9L186.44-24.9Q190.04-20.35 190.04-15.15L190.04-15.15Q190.04-8.6 184.69-3.75 179.34 1.1 171.74 1.1L171.74 1.1Q168.49 1.1 164.84-0.15ZM172.44-21.8L172.44-21.8Q170.69-18.8 170.69-14.75 170.69-10.7 172.47-7.28 174.24-3.85 177.34-2.35L177.34-2.35Q179.69-5.35 179.69-9.3 179.69-13.25 177.77-16.65 175.84-20.05 172.44-21.8ZM230.24-22L230.24-22Q228.24-22.3 225.96-22.3 223.69-22.3 221.54-22L221.54-22Q222.89-19.7 224.74-18.25 226.59-16.8 229.41-15.38 232.24-13.95 234.01-12.75 235.79-11.55 237.94-8.8 240.09-6.05 240.64-3.05L240.64-3.05Q238.24 0.05 234.29 2.43 230.34 4.8 226.19 5.6L226.19 5.6Q223.39 5.35 219.11 4.03 214.84 2.7 212.69 2.7 210.54 2.7 208.39 4.05L208.39 4.05Q209.29 1.5 211.34-2.35L211.34-2.35 211.74-2.35Q214.94-2.35 217.76-1.35 220.59-0.35 222.91 0.65 225.24 1.65 226.66 1.65 228.09 1.65 228.74 1.45L228.74 1.45Q228.74-1.85 226.69-4L226.69-4Q225.59-5.15 224.81-5.78 224.04-6.4 222.44-7.5L222.44-7.5 221.59-8.1Q218.19-10.45 215.99-12.88 213.79-15.3 212.79-18.85L212.79-18.85Q214.39-22.4 215.94-25L215.94-25Q220.69-26.15 225.79-26.15L225.79-26.15 227.99-26.15Q232.29-26.15 237.84-24.95L237.84-24.95Q237.04-21.65 235.89-19L235.89-19Q231.69-18.7 229.39-18.7L229.39-18.7Q229.84-19.85 230.24-22ZM264.43-21.75L264.43-21.75Q263.13-13.85 263.13-8.85 263.13-3.85 263.53 0L263.53 0 252.63 0Q250.93-7.95 250.93-17.1L250.93-17.1Q250.93-18.65 251.03-21.75L251.03-21.75Q246.78-20.5 245.83-16L245.83-16 240.88-16.3 242.68-25 275.93-25Q274.93-19.5 273.63-16L273.63-16 268.58-16.3Q268.78-17.1 268.78-17.9L268.78-17.9Q268.78-19.85 267.58-20.8 266.38-21.75 264.43-21.75ZM310.58-0.4L310.58-0.4 310.58 0 298.98 0Q298.78-2.85 298.13-5.9L298.13-5.9Q295.03-2.75 291.13 0L291.13 0 279.48 0Q279.13-2.05 279.13-5.43 279.13-8.8 280.13-12.2L280.13-12.2Q283.73-13.25 287.06-15.75 290.38-18.25 291.88-21.15L291.88-21.15Q290.53-23.25 289.03-25L289.03-25 305.63-25Q310.58-14.25 310.58-0.4ZM297.23-9.55L297.23-9.55Q295.93-14 293.83-17.95L293.83-17.95Q291.48-11.05 291.13-4.9L291.13-4.9Q294.73-6.75 297.23-9.55ZM332.18-14.2L332.18-14.2 336.93-13.9Q337.58-13.9 337.93-13.95L337.93-13.95 335.58-9.55 335.13-9.55Q334.18-9.55 332.43-10.08 330.68-10.6 329.93-10.6L329.93-10.6Q327.98-10.6 326.78-8.05L326.78-8.05Q326.53-5.2 326.53-3.55 326.53-1.9 326.63 0L326.63 0 315.78 0Q314.83-6.4 314.83-13.23 314.83-20.05 315.53-24.95L315.53-24.95 342.23-24.95Q341.33-19.55 340.63-17.4L340.63-17.4 335.23-17.15Q335.68-18.4 335.68-19.3L335.68-19.3Q335.68-21.7 332.03-21.7L332.03-21.7Q330.43-21.7 329.08-21.45L329.08-21.45Q327.98-17 327.28-12.35L327.28-12.35Q329.28-14.2 332.18-14.2ZM363.13-14.2L363.13-14.2 367.88-13.9Q368.53-13.9 368.88-13.95L368.88-13.95 366.53-9.55 366.08-9.55Q365.13-9.55 363.38-10.08 361.63-10.6 360.88-10.6L360.88-10.6Q358.93-10.6 357.73-8.05L357.73-8.05Q357.48-5.2 357.48-3.55 357.48-1.9 357.58 0L357.58 0 346.73 0Q345.78-6.4 345.78-13.23 345.78-20.05 346.48-24.95L346.48-24.95 373.18-24.95Q372.28-19.55 371.58-17.4L371.58-17.4 366.18-17.15Q366.63-18.4 366.63-19.3L366.63-19.3Q366.63-21.7 362.98-21.7L362.98-21.7Q361.38-21.7 360.03-21.45L360.03-21.45Q358.93-17 358.23-12.35L358.23-12.35Q360.23-14.2 363.13-14.2ZM425.42-0.4L425.42-0.4 425.42 0 413.82 0Q413.62-2.75 412.97-5.9L412.97-5.9Q409.47-2.4 405.97 0L405.97 0 394.32 0Q393.97-2.05 393.97-5.43 393.97-8.8 394.97-12.2L394.97-12.2Q398.57-13.25 401.9-15.75 405.22-18.25 406.72-21.15L406.72-21.15Q405.32-23.35 403.87-25L403.87-25 420.47-25Q425.42-14.15 425.42-0.4ZM412.07-9.55L412.07-9.55Q410.82-13.85 408.67-17.95L408.67-17.95Q406.32-11.05 405.97-4.9L405.97-4.9Q409.67-6.9 412.07-9.55ZM447.12-2.45L447.12-2.45 447.17-4.55Q447.17-8.1 446.57-13L446.57-13 457.37-13Q457.37-5.9 456.67 0L456.67 0Q448.92 1.1 440.62 1.1L440.62 1.1 437.42 1.1Q432.87-0.85 430.32-4.63 427.77-8.4 427.77-12.65L427.77-12.65Q427.77-18.3 432.34-22.23 436.92-26.15 445.72-26.15L445.72-26.15Q450.32-26.15 455.97-24.9L455.97-24.9Q455.12-21.5 454.02-18.9L454.02-18.9Q450.97-18.7 447.47-18.6L447.47-18.6Q448.02-20.3 448.27-21.95L448.27-21.95Q446.67-22.25 444.99-22.25 443.32-22.25 441.02-21.7L441.02-21.7Q440.22-18.3 440.22-15.55L440.22-15.55Q440.22-11.4 442.09-7.78 443.97-4.15 447.12-2.45ZM480.81-14.95L480.81-14.95 485.51-14.65Q486.21-14.65 486.56-14.7L486.56-14.7 484.21-10.3 483.76-10.3Q482.81-10.3 481.06-10.83 479.31-11.35 478.56-11.35L478.56-11.35Q476.51-11.35 475.31-8.7L475.31-8.7Q475.12-6.25 475.01-3.8L475.01-3.8Q477.62-3.3 479.12-3.3L479.12-3.3 479.56-3.3Q481.71-3.3 482.99-4.25 484.26-5.2 484.81-7.65L484.81-7.65 490.81-7.4Q490.06-3.1 488.81 0L488.81 0 464.26 0Q463.26-6.75 463.26-13.4 463.26-20.05 463.96-25L463.96-25 490.76-25Q489.87-19.6 489.17-17.4L489.17-17.4Q486.21-17.25 483.76-17.2L483.76-17.2Q484.17-18.35 484.17-19.35L484.17-19.35Q484.17-21.75 480.56-21.75L480.56-21.75Q479.21-21.75 477.56-21.45L477.56-21.45Q476.46-16.7 475.87-13.1L475.87-13.1Q477.87-14.95 480.81-14.95ZM519.96-25L525.91-25Q526.21-19.75 526.21-13.93 526.21-8.1 525.71 0L525.71 0 520.91 0Q511.21-5.2 503.11-14.15L503.11-14.15Q503.51-10.8 503.51-7.28 503.51-3.75 503.26 0L503.26 0 497.41 0Q498.41-6.15 498.41-11.38 498.41-16.6 497.91-19.65L497.91-19.65Q495.91-22.65 494.76-25L494.76-25 508.96-25Q511.06-21.4 514.69-17.57 518.31-13.75 521.61-11.6L521.61-11.6Q521.61-18.9 519.96-25L519.96-25ZM551.81-21.95L551.81-21.95Q550.06-22.25 548.43-22.25 546.81-22.25 544.51-21.7L544.51-21.7Q543.76-18.55 543.76-15.55L543.76-15.55Q543.76-7.8 550.66-3.65L550.66-3.65Q555.26-6.7 558.96-11.25L558.96-11.25Q559.11-9.25 559.21-5.15L559.21-5.15Q555.51-2.25 551.66-0.6 547.81 1.05 542.06 1.05L542.06 1.05 540.91 1.05Q536.41-0.9 533.83-4.7 531.26-8.5 531.26-12.7L531.26-12.7Q531.26-18.3 535.86-22.23 540.46-26.15 549.21-26.15L549.21-26.15Q554.11-26.15 559.46-24.9L559.46-24.9Q558.66-21.75 557.46-18.95L557.46-18.95Q554.31-18.65 550.96-18.65L550.96-18.65Q551.46-20.05 551.81-21.95ZM593.96-24.05L593.96-24.05Q592.26-23.65 591.11-23.65 589.96-23.65 588.91-23.8L588.91-23.8Q587.36-21.95 586.11-18.85 584.86-15.75 584.23-13.3 583.61-10.85 582.86-7.3L582.86-7.3Q579.06 10.8 575.26 18.4L575.26 18.4Q572.76 19.15 569.06 19.85L569.06 19.85Q574.06 11.3 577.16 0L577.16 0 566.81 0Q562.86-12.8 562.71-25L562.71-25 577.31-25Q576.26-20.35 576.26-15.13 576.26-9.9 577.96-3.2L577.96-3.2Q578.31-4.55 579.16-7.93 580.01-11.3 580.41-12.75 580.81-14.2 581.63-16.85 582.46-19.5 583.13-20.83 583.81-22.15 584.81-23.8L584.81-23.8Q586.61-26.75 589.56-27.8L589.56-27.8Q590.41-28.05 593.01-28.33 595.61-28.6 596.76-29.35L596.76-29.35Q595.41-26.25 593.96-24.05Z" opacity="1" transform="matrix(1,0,0,1,0,0)" fill="#233565" class="wordmark-text-0" data-fill-palette-color="primary" id="text-0"></path></svg></g></svg></g><g transform="matrix(1,0,0,1,0,37.47765434557311)"><svg viewBox="0 0 395.52 20.211803213445375" height="20.211803213445375" width="395.52"><g transform="matrix(1,0,0,1,0,0)"><svg width="395.52" viewBox="2.2 -36.83 898.6999999999999 45.93" height="20.211803213445375" data-palette-color="#233565"><path d="M2.2-2.75L2.2-2.75Q2.2-3.4 2.44-3.98 2.68-4.55 3.09-4.98 3.5-5.4 4.08-5.65 4.65-5.9 5.3-5.9L5.3-5.9Q5.95-5.9 6.53-5.65 7.1-5.4 7.53-4.98 7.95-4.55 8.19-3.98 8.43-3.4 8.43-2.75L8.43-2.75Q8.43-2.08 8.19-1.51 7.95-0.95 7.53-0.53 7.1-0.1 6.53 0.14 5.95 0.38 5.3 0.38L5.3 0.38Q4.65 0.38 4.08 0.14 3.5-0.1 3.09-0.53 2.68-0.95 2.44-1.51 2.2-2.08 2.2-2.75ZM44.99-2.75L44.99-2.75Q44.99-3.4 45.23-3.98 45.47-4.55 45.88-4.98 46.29-5.4 46.87-5.65 47.44-5.9 48.09-5.9L48.09-5.9Q48.74-5.9 49.32-5.65 49.89-5.4 50.32-4.98 50.74-4.55 50.98-3.98 51.22-3.4 51.22-2.75L51.22-2.75Q51.22-2.08 50.98-1.51 50.74-0.95 50.32-0.53 49.89-0.1 49.32 0.14 48.74 0.38 48.09 0.38L48.09 0.38Q47.44 0.38 46.87 0.14 46.29-0.1 45.88-0.53 45.47-0.95 45.23-1.51 44.99-2.08 44.99-2.75ZM89.73-36.83L94.18-36.83 94.18 0 89.73 0 89.73-36.83ZM134.73-25.33L139.18-25.33 139.18 0 134.73 0 134.73-25.33ZM140.18-33.27L140.18-33.27Q140.18-32.63 139.91-32.06 139.65-31.5 139.21-31.06 138.78-30.63 138.2-30.38 137.63-30.13 136.98-30.13L136.98-30.13Q136.33-30.13 135.76-30.38 135.2-30.63 134.76-31.06 134.33-31.5 134.08-32.06 133.83-32.63 133.83-33.27L133.83-33.27Q133.83-33.93 134.08-34.51 134.33-35.1 134.76-35.54 135.2-35.98 135.76-36.23 136.33-36.48 136.98-36.48L136.98-36.48Q137.63-36.48 138.2-36.23 138.78-35.98 139.21-35.54 139.65-35.1 139.91-34.51 140.18-33.93 140.18-33.27ZM183.67 0L179.22 0 179.22-25.33 181.87-25.33Q182.82-25.33 183.07-24.4L183.07-24.4 183.42-21.65Q185.07-23.48 187.11-24.6 189.14-25.73 191.82-25.73L191.82-25.73Q193.89-25.73 195.48-25.04 197.07-24.35 198.13-23.09 199.19-21.83 199.74-20.05 200.29-18.28 200.29-16.13L200.29-16.13 200.29 0 195.84 0 195.84-16.13Q195.84-19 194.53-20.59 193.22-22.18 190.52-22.18L190.52-22.18Q188.54-22.18 186.83-21.23 185.12-20.28 183.67-18.65L183.67-18.65 183.67 0ZM239.36-36.83L243.84-36.83 243.84-15.15 244.99-15.15Q245.49-15.15 245.81-15.29 246.14-15.43 246.54-15.85L246.54-15.85 254.54-24.43Q254.91-24.83 255.29-25.08 255.66-25.33 256.29-25.33L256.29-25.33 260.34-25.33 251.01-15.4Q250.66-14.98 250.32-14.65 249.99-14.33 249.56-14.08L249.56-14.08Q250.01-13.78 250.37-13.39 250.74-13 251.06-12.5L251.06-12.5 260.96 0 256.96 0Q256.41 0 256.02-0.21 255.64-0.43 255.29-0.88L255.29-0.88 246.96-11.25Q246.59-11.78 246.21-11.94 245.84-12.1 245.09-12.1L245.09-12.1 243.84-12.1 243.84 0 239.36 0 239.36-36.83ZM313.1-22.78L312.1-21.15Q311.8-20.6 311.18-20.6L311.18-20.6Q310.8-20.6 310.33-20.88 309.85-21.15 309.17-21.49 308.48-21.83 307.53-22.11 306.58-22.4 305.28-22.4L305.28-22.4Q304.15-22.4 303.25-22.11 302.35-21.83 301.72-21.33 301.08-20.83 300.74-20.16 300.4-19.5 300.4-18.73L300.4-18.73Q300.4-17.75 300.97-17.1 301.53-16.45 302.45-15.98 303.38-15.5 304.55-15.14 305.73-14.78 306.97-14.36 308.2-13.95 309.38-13.45 310.55-12.95 311.48-12.2 312.4-11.45 312.97-10.36 313.53-9.28 313.53-7.75L313.53-7.75Q313.53-6 312.9-4.51 312.28-3.03 311.05-1.94 309.83-0.85 308.05-0.23 306.28 0.4 303.95 0.4L303.95 0.4Q301.3 0.4 299.15-0.46 297-1.33 295.5-2.68L295.5-2.68 296.55-4.38Q296.75-4.7 297.03-4.88 297.3-5.05 297.75-5.05L297.75-5.05Q298.2-5.05 298.7-4.7 299.2-4.35 299.92-3.93 300.63-3.5 301.64-3.15 302.65-2.8 304.18-2.8L304.18-2.8Q305.48-2.8 306.45-3.14 307.43-3.48 308.08-4.05 308.73-4.63 309.04-5.38 309.35-6.13 309.35-6.98L309.35-6.98Q309.35-8.03 308.79-8.71 308.23-9.4 307.3-9.89 306.38-10.38 305.19-10.74 304-11.1 302.77-11.5 301.53-11.9 300.34-12.41 299.15-12.93 298.23-13.7 297.3-14.48 296.74-15.61 296.18-16.75 296.18-18.38L296.18-18.38Q296.18-19.83 296.78-21.16 297.38-22.5 298.53-23.51 299.68-24.53 301.35-25.13 303.03-25.73 305.18-25.73L305.18-25.73Q307.68-25.73 309.67-24.94 311.65-24.15 313.1-22.78L313.1-22.78ZM393.84-25.33L398.29-25.33 398.29 1.88Q398.29 3.4 397.89 4.71 397.49 6.03 396.63 7 395.76 7.98 394.4 8.54 393.04 9.1 391.14 9.1L391.14 9.1Q390.31 9.1 389.64 8.97 388.96 8.85 388.29 8.6L388.29 8.6 388.49 6.2Q388.54 5.88 388.71 5.79 388.89 5.7 389.26 5.7L389.26 5.7Q389.46 5.7 389.69 5.71 389.91 5.73 390.24 5.73L390.24 5.73Q392.19 5.73 393.01 4.81 393.84 3.9 393.84 1.88L393.84 1.88 393.84-25.33ZM399.29-33.27L399.29-33.27Q399.29-32.63 399.03-32.06 398.76-31.5 398.33-31.06 397.89-30.63 397.31-30.38 396.74-30.13 396.09-30.13L396.09-30.13Q395.44-30.13 394.88-30.38 394.31-30.63 393.88-31.06 393.44-31.5 393.19-32.06 392.94-32.63 392.94-33.27L392.94-33.27Q392.94-33.93 393.19-34.51 393.44-35.1 393.88-35.54 394.31-35.98 394.88-36.23 395.44-36.48 396.09-36.48L396.09-36.48Q396.74-36.48 397.31-36.23 397.89-35.98 398.33-35.54 398.76-35.1 399.03-34.51 399.29-33.93 399.29-33.27ZM448.48-25.73L448.48-25.73Q451.26-25.73 453.49-24.8 455.73-23.88 457.29-22.18 458.86-20.48 459.69-18.06 460.53-15.65 460.53-12.68L460.53-12.68Q460.53-9.68 459.69-7.28 458.86-4.88 457.29-3.18 455.73-1.48 453.49-0.56 451.26 0.35 448.48 0.35L448.48 0.35Q445.71 0.35 443.47-0.56 441.23-1.48 439.66-3.18 438.08-4.88 437.23-7.28 436.38-9.68 436.38-12.68L436.38-12.68Q436.38-15.65 437.23-18.06 438.08-20.48 439.66-22.18 441.23-23.88 443.47-24.8 445.71-25.73 448.48-25.73ZM448.48-3.13L448.48-3.13Q452.23-3.13 454.08-5.64 455.93-8.15 455.93-12.65L455.93-12.65Q455.93-17.18 454.08-19.7 452.23-22.23 448.48-22.23L448.48-22.23Q446.58-22.23 445.18-21.58 443.78-20.93 442.84-19.7 441.91-18.48 441.44-16.69 440.98-14.9 440.98-12.65L440.98-12.65Q440.98-10.4 441.44-8.63 441.91-6.85 442.84-5.64 443.78-4.42 445.18-3.78 446.58-3.13 448.48-3.13ZM501.25 0L498.37 0 498.37-36.83 502.85-36.83 502.85-21.68Q504.42-23.5 506.46-24.61 508.5-25.73 511.12-25.73L511.12-25.73Q513.32-25.73 515.1-24.9 516.87-24.08 518.12-22.44 519.37-20.8 520.05-18.39 520.72-15.98 520.72-12.83L520.72-12.83Q520.72-10.03 519.97-7.61 519.22-5.2 517.81-3.44 516.4-1.68 514.36-0.66 512.32 0.35 509.77 0.35L509.77 0.35Q507.32 0.35 505.61-0.6 503.9-1.55 502.62-3.25L502.62-3.25 502.4-0.95Q502.2 0 501.25 0L501.25 0ZM509.67-22.18L509.67-22.18Q507.5-22.18 505.86-21.18 504.22-20.18 502.85-18.35L502.85-18.35 502.85-6.1Q504.05-4.45 505.51-3.78 506.97-3.1 508.77-3.1L508.77-3.1Q512.32-3.1 514.22-5.63 516.12-8.15 516.12-12.83L516.12-12.83Q516.12-15.3 515.69-17.07 515.25-18.85 514.42-19.99 513.6-21.13 512.4-21.65 511.2-22.18 509.67-22.18ZM573.87-22.78L572.87-21.15Q572.57-20.6 571.94-20.6L571.94-20.6Q571.57-20.6 571.09-20.88 570.62-21.15 569.93-21.49 569.24-21.83 568.29-22.11 567.34-22.4 566.04-22.4L566.04-22.4Q564.92-22.4 564.02-22.11 563.12-21.83 562.48-21.33 561.84-20.83 561.5-20.16 561.17-19.5 561.17-18.73L561.17-18.73Q561.17-17.75 561.73-17.1 562.29-16.45 563.22-15.98 564.14-15.5 565.32-15.14 566.49-14.78 567.73-14.36 568.97-13.95 570.14-13.45 571.32-12.95 572.24-12.2 573.17-11.45 573.73-10.36 574.29-9.28 574.29-7.75L574.29-7.75Q574.29-6 573.67-4.51 573.04-3.03 571.82-1.94 570.59-0.85 568.82-0.23 567.04 0.4 564.72 0.4L564.72 0.4Q562.07 0.4 559.92-0.46 557.77-1.33 556.27-2.68L556.27-2.68 557.32-4.38Q557.52-4.7 557.79-4.88 558.07-5.05 558.52-5.05L558.52-5.05Q558.97-5.05 559.47-4.7 559.97-4.35 560.68-3.93 561.39-3.5 562.4-3.15 563.42-2.8 564.94-2.8L564.94-2.8Q566.24-2.8 567.22-3.14 568.19-3.48 568.84-4.05 569.49-4.63 569.8-5.38 570.12-6.13 570.12-6.98L570.12-6.98Q570.12-8.03 569.55-8.71 568.99-9.4 568.07-9.89 567.14-10.38 565.95-10.74 564.77-11.1 563.53-11.5 562.29-11.9 561.1-12.41 559.92-12.93 558.99-13.7 558.07-14.48 557.5-15.61 556.94-16.75 556.94-18.38L556.94-18.38Q556.94-19.83 557.54-21.16 558.14-22.5 559.29-23.51 560.44-24.53 562.12-25.13 563.79-25.73 565.94-25.73L565.94-25.73Q568.44-25.73 570.43-24.94 572.42-24.15 573.87-22.78L573.87-22.78ZM666.95-36.23L666.95-36.23Q668.93-36.23 670.55-35.59 672.18-34.95 673.36-33.9 674.55-32.85 675.24-31.46 675.93-30.08 676.03-28.58L676.03-28.58 673.25-28.03Q673.13-28 673.03-28L673.03-28Q672.7-28 672.41-28.18 672.13-28.35 672-28.8L672-28.8Q671.83-29.45 671.44-30.15 671.05-30.85 670.44-31.43 669.83-32 668.96-32.38 668.1-32.75 666.95-32.75L666.95-32.75Q665.7-32.75 664.7-32.35 663.7-31.95 662.99-31.24 662.28-30.53 661.89-29.56 661.5-28.6 661.5-27.48L661.5-27.48Q661.5-26.6 661.71-25.8 661.93-25 662.35-24.19 662.78-23.38 663.45-22.51 664.13-21.65 665.08-20.7L665.08-20.7 675.38-10.23Q676.33-11.9 676.89-13.74 677.45-15.58 677.65-17.43L677.65-17.43Q677.7-17.9 677.95-18.18 678.2-18.45 678.65-18.45L678.65-18.45 681.4-18.45Q681.35-15.58 680.48-12.8 679.6-10.03 677.95-7.6L677.95-7.6 685.45 0 681.15 0Q680.43 0 679.98-0.18 679.53-0.35 678.98-0.9L678.98-0.9 675.38-4.53Q673.03-2.25 669.96-0.93 666.9 0.4 663.23 0.4L663.23 0.4Q661.23 0.4 659.3-0.28 657.38-0.95 655.86-2.24 654.35-3.53 653.43-5.38 652.5-7.23 652.5-9.55L652.5-9.55Q652.5-11.3 653.09-12.86 653.68-14.43 654.71-15.75 655.75-17.07 657.18-18.13 658.6-19.18 660.3-19.93L660.3-19.93Q658.78-21.85 658.05-23.68 657.33-25.5 657.33-27.45L657.33-27.45Q657.33-29.28 657.99-30.88 658.65-32.48 659.9-33.66 661.15-34.85 662.94-35.54 664.73-36.23 666.95-36.23ZM657.03-9.9L657.03-9.9Q657.03-8.28 657.63-7.04 658.23-5.8 659.2-4.95 660.18-4.1 661.43-3.66 662.68-3.23 663.98-3.23L663.98-3.23Q666.78-3.23 669-4.25 671.23-5.28 672.93-6.98L672.93-6.98 662.35-17.65Q659.7-16.23 658.36-14.24 657.03-12.25 657.03-9.9ZM784.84-25.33L770.71 7.48Q770.49 7.98 770.15 8.28 769.81 8.58 769.11 8.58L769.11 8.58 765.81 8.58 770.44-1.48 759.99-25.33 763.84-25.33Q764.41-25.33 764.74-25.04 765.06-24.75 765.21-24.4L765.21-24.4 771.99-8.45Q772.21-7.9 772.37-7.35 772.54-6.8 772.66-6.23L772.66-6.23Q772.84-6.8 773.01-7.35 773.19-7.9 773.41-8.47L773.41-8.47 779.99-24.4Q780.14-24.8 780.5-25.06 780.86-25.33 781.29-25.33L781.29-25.33 784.84-25.33ZM830.68-25.73L830.68-25.73Q833.45-25.73 835.69-24.8 837.93-23.88 839.49-22.18 841.05-20.48 841.89-18.06 842.73-15.65 842.73-12.68L842.73-12.68Q842.73-9.68 841.89-7.28 841.05-4.88 839.49-3.18 837.93-1.48 835.69-0.56 833.45 0.35 830.68 0.35L830.68 0.35Q827.9 0.35 825.67-0.56 823.43-1.48 821.85-3.18 820.28-4.88 819.43-7.28 818.58-9.68 818.58-12.68L818.58-12.68Q818.58-15.65 819.43-18.06 820.28-20.48 821.85-22.18 823.43-23.88 825.67-24.8 827.9-25.73 830.68-25.73ZM830.68-3.13L830.68-3.13Q834.43-3.13 836.28-5.64 838.13-8.15 838.13-12.65L838.13-12.65Q838.13-17.18 836.28-19.7 834.43-22.23 830.68-22.23L830.68-22.23Q828.78-22.23 827.38-21.58 825.98-20.93 825.04-19.7 824.1-18.48 823.64-16.69 823.18-14.9 823.18-12.65L823.18-12.65Q823.18-10.4 823.64-8.63 824.1-6.85 825.04-5.64 825.98-4.42 827.38-3.78 828.78-3.13 830.68-3.13ZM879.82-25.33L884.27-25.33 884.27-9.18Q884.27-6.3 885.6-4.73 886.92-3.15 889.6-3.15L889.6-3.15Q891.55-3.15 893.27-4.08 895-5 896.45-6.65L896.45-6.65 896.45-25.33 900.9-25.33 900.9 0 898.25 0Q897.3 0 897.05-0.93L897.05-0.93 896.7-3.65Q895.05-1.83 893-0.71 890.95 0.4 888.3 0.4L888.3 0.4Q886.22 0.4 884.63-0.29 883.05-0.98 881.97-2.23 880.9-3.48 880.36-5.25 879.82-7.03 879.82-9.18L879.82-9.18 879.82-25.33Z" opacity="1" transform="matrix(1,0,0,1,0,0)" fill="#233565" class="slogan-text-1" data-fill-palette-color="secondary" id="text-1"></path></svg></g></svg></g></svg></g></svg></g><g transform="matrix(1,0,0,1,400.2924711522958,0)"><svg viewBox="0 0 79.72629560093289 79.72683034656355" height="79.72683034656355" width="79.72629560093289"><g><svg xmlns:dc="http://purl.org/dc/elements/1.1/" xmlns:cc="http://creativecommons.org/ns#" xmlns:rdf="http://www.w3.org/1999/02/22-rdf-syntax-ns#" xmlns:svg="http://www.w3.org/2000/svg" xmlns="http://www.w3.org/2000/svg" xmlns:sodipodi="http://sodipodi.sourceforge.net/DTD/sodipodi-0.dtd" xmlns:inkscape="http://www.inkscape.org/namespaces/inkscape" version="1.1" x="0" y="0" viewBox="4.9515398049 5.175850937152987 91.493779684647 91.494393357947" enable-background="new 0 0 100 52" xml:space="preserve" height="79.72683034656355" width="79.72629560093289" class="icon-icon-0" data-fill-palette-color="accent" id="icon-0"><g transform="matrix(0.6136733,-0.6136733,0.6136733,0.6136733,4.0598725,65.6509)" fill="#a3e1f9" data-fill-palette-color="accent"><path d="M47.807 33.138c0.008-0.009 0.016-0.019 0.024-0.026-0.009 0.007-0.018 0.015-0.026 0.023 0 0.001 0.001 0.002 0.002 0.003z" fill="none"></path><path d="M53.048 49.8c-0.274-0.071-0.545-0.152-0.815-0.232-0.002 0.001-0.005 0.003-0.007 0.003 0.259 0.077 0.534 0.155 0.822 0.229z" fill="none"></path><path d="M36.33 35.501h-0.004c0.204 0.522 0.496 1.114 0.783 1.651h0.013c-0.284-0.54-0.548-1.09-0.792-1.651z" fill="none"></path><path d="M37.108 37.152c0.291 0.544 0.577 1.029 0.758 1.332-0.263-0.436-0.508-0.882-0.746-1.332h-0.012z" fill="#a3e1f9" data-fill-palette-color="accent"></path><path d="M38.062 38.804h0.006c-0.048-0.079-0.1-0.152-0.147-0.231 0.087 0.144 0.141 0.231 0.141 0.231z" fill="#a3e1f9" data-fill-palette-color="accent"></path><path d="M51.812 49.445c-0.631-0.197-1.249-0.424-1.856-0.669-0.003 0.002-0.007 0.003-0.009 0.004 0.06 0.025 0.781 0.324 1.865 0.665z" fill="#a3e1f9" data-fill-palette-color="accent"></path><path d="M52.226 49.57c0.002 0 0.005-0.002 0.007-0.003-0.106-0.03-0.213-0.057-0.318-0.091 0.101 0.033 0.205 0.065 0.311 0.094z" fill="#a3e1f9" data-fill-palette-color="accent"></path><path d="M74.458 0.955H59.321c-1.307 0-2.591 0.1-3.845 0.293-0.273 0.042-0.541 0.101-0.811 0.151 4.646 2.666 8.469 6.605 10.987 11.343h1.238 8.346c7.322 0 13.257 5.937 13.257 13.259 0 7.321-5.936 13.258-13.257 13.258H65.72 63.762 61.857 61.851 58.68c-3.305 0-6.324-1.212-8.646-3.212 0 0-0.003 0.003-0.003 0.003 0-0.002-0.001-0.002-0.002-0.003-0.494-0.414-0.886-0.802-1.206-1.148-0.7-0.764-1.011-1.303-1.011-1.303 0.001-0.002 0.002-0.002 0.002-0.003-0.001-0.001-0.002-0.002-0.002-0.003-1.505-2.15-2.389-4.766-2.389-7.589 0-2.746 0.834-5.296 2.263-7.413 0.041-0.06 0.086-0.117 0.127-0.176-1.736-1.473-3.978-2.367-6.429-2.367h-5.041c-1.325 3.052-2.067 6.416-2.067 9.956 0 3.538 0.737 6.903 2.061 9.955 0.244 0.561 0.509 1.111 0.792 1.651 0.237 0.45 0.482 0.896 0.746 1.332 0.02 0.033 0.036 0.059 0.054 0.088 0.047 0.079 0.099 0.152 0.147 0.231 2.792 4.463 6.948 7.98 11.888 9.973 0.608 0.245 1.226 0.472 1.856 0.669 0.034 0.011 0.068 0.022 0.103 0.031 0.105 0.034 0.212 0.061 0.318 0.091 0.27 0.08 0.541 0.161 0.815 0.232 0.004 0 0.006 0.002 0.01 0.003 2 0.513 4.096 0.787 6.254 0.787H74.457C88.289 51.044 99.501 39.831 99.501 26 99.502 12.169 88.29 0.955 74.458 0.955z" fill="#a3e1f9" data-fill-palette-color="accent"></path><path d="M25.542 51.045h15.137c1.308 0 2.592-0.101 3.846-0.294 0.273-0.042 0.542-0.1 0.811-0.151C40.69 47.935 36.866 43.996 34.349 39.258H33.11 24.764c-7.322 0-13.257-5.936-13.257-13.259 0-7.322 5.935-13.257 13.257-13.257h9.516 1.957 1.905 0.007 3.17c3.304 0 6.323 1.212 8.645 3.212l0.002-0.003c0.001 0.001 0.001 0.002 0.002 0.003 0.495 0.413 0.887 0.801 1.206 1.148 0.701 0.762 1.011 1.302 1.011 1.302 0 0.001-0.001 0.002-0.002 0.003 0.001 0 0.002 0.001 0.003 0.003 1.505 2.15 2.39 4.766 2.39 7.588 0 2.746-0.835 5.297-2.264 7.412-0.041 0.062-0.085 0.118-0.127 0.176 1.736 1.474 3.979 2.369 6.429 2.369h5.042c1.324-3.053 2.065-6.417 2.065-9.957 0-3.539-0.737-6.903-2.061-9.955C63.416 15.482 63.151 14.932 62.868 14.392 62.631 13.941 62.386 13.494 62.122 13.06 62.102 13.027 62.086 13 62.069 12.971 62.021 12.893 61.97 12.818 61.922 12.741 59.13 8.278 54.973 4.76 50.034 2.768 49.426 2.523 48.808 2.297 48.178 2.098 48.144 2.087 48.11 2.077 48.075 2.066 47.97 2.034 47.863 2.007 47.757 1.977 47.487 1.896 47.216 1.815 46.941 1.745 46.937 1.744 46.935 1.744 46.932 1.743 44.932 1.228 42.837 0.955 40.677 0.955H25.542c-13.832 0-25.044 11.212-25.044 25.044 0 13.833 11.212 25.046 25.044 25.046z" fill="#a3e1f9" data-fill-palette-color="accent"></path><path d="M53.058 49.803C53.055 49.802 53.052 49.8 53.048 49.8c0.004 0 0.007 0.002 0.01 0.003z" fill="#a3e1f9" data-fill-palette-color="accent"></path><path d="M51.812 49.445c0.034 0.011 0.068 0.022 0.103 0.031-0.034-0.008-0.068-0.02-0.103-0.031z" fill="#a3e1f9" data-fill-palette-color="accent"></path><path d="M47.805 33.141c0 0 0.311 0.539 1.011 1.303 0.005-0.006 0.01-0.012 0.016-0.015-0.369-0.407-0.709-0.84-1.025-1.291 0 0.001-0.001 0.001-0.002 0.003z" fill="#a3e1f9" data-fill-palette-color="accent"></path><path d="M37.92 38.572c-0.018-0.029-0.034-0.055-0.054-0.088 0.019 0.03 0.036 0.058 0.054 0.088z" fill="#a3e1f9" data-fill-palette-color="accent"></path><path d="M48.832 34.429c-0.006 0.003-0.011 0.009-0.016 0.015 0.319 0.347 0.711 0.734 1.206 1.148 0.001-0.002 0.002-0.003 0.002-0.003-0.42-0.362-0.82-0.749-1.192-1.16z" fill="#a3e1f9" data-fill-palette-color="accent"></path><path d="M50.027 35.592c0.001-0.003 0.004-0.006 0.012-0.015-0.004 0.004-0.01 0.008-0.015 0.012 0.001 0 0.002 0.001 0.003 0.003z" fill="#a3e1f9" data-fill-palette-color="accent"></path><rect height="0.0040000002" width="0.0040000002" y="35.59" x="50.021999" fill="#a3e1f9" data-fill-palette-color="accent"></rect></g></svg></g></svg></g></svg></g></svg></g></svg></g><defs></defs></svg><rect width="395.52" height="65.69233980571389" fill="none" stroke="none" visibility="hidden"></rect></g></svg></g></svg>